# xmcd CD database file
#
# Track frame offsets:
#	150
#	22968
#	43483
#	69640
#	91112
#	110743
#	133274
#	153814
#	177458
#	200402
#	224930
#	245985
#	263783
#
# Disc length: 3817 seconds
#
# Revision: 0
# Processed by: cddbd v1.5.2PL0 Copyright (c) Steve Scherf et al.
# Submitted via: CDex 2.00
#
DISCID=cd0ee70d
DTITLE=Ben Crosland Quintet - The Ray Davies Songbook Volume II
DYEAR=2018
DGENRE=Jazz
TTITLE0=Sittin' On My Sofa
TTITLE1=Days
TTITLE2=Till The End Of The Day
TTITLE3=Apeman
TTITLE4=Victoria
TTITLE5=Celluloid Heroes
TTITLE6=I Gotta Move
TTITLE7=Lola
TTITLE8=Where Have All The Good Times Gone
TTITLE9=Autumn Almanac
TTITLE10=David Watts
TTITLE11=I'm Not Like Everybody Else
TTITLE12=Dandy
EXTD=YEAR: 2018
EXTT0=
EXTT1=
EXTT2=
EXTT3=
EXTT4=
EXTT5=
EXTT6=
EXTT7=
EXTT8=
EXTT9=
EXTT10=
EXTT11=
EXTT12=
PLAYORDER=
